<svg xmlns="http://www.w3.org/2000/svg" fill="none" viewBox="0 0 70 70"><path fill="#fff" d="M51.48 18.52c-4.755-4.753-11.492-7.495-18.9-6.737-10.705 1.08-19.513 9.771-20.71 20.475C10.268 46.404 21.205 58.333 35 58.333c9.304 0 17.296-5.454 21.03-13.3.932-1.954-.468-4.2-2.626-4.2-1.079 0-2.1.584-2.567 1.546-3.295 7.088-11.2 11.58-19.833 9.654-6.475-1.429-11.696-6.708-13.067-13.183C15.488 27.533 24.093 17.5 35 17.5c4.842 0 9.158 2.012 12.308 5.192l-4.404 4.404c-1.837 1.837-.554 4.987 2.042 4.987h10.47a2.925 2.925 0 0 0 2.917-2.916V18.696c0-2.596-3.15-3.909-4.987-2.071l-1.867 1.896Z"/></svg>